<svg width="86" height="32" viewBox="0 0 86 32" fill="none" xmlns="http://www.w3.org/2000/svg">
<path d="M1.68 31C1.09333 31 0.88 30.7467 1.04 30.24L11 2.03998C11.08 1.82665 11.2133 1.65332 11.4 1.51998C11.5867 1.38665 11.8 1.31998 12.04 1.31998H15.36C15.92 1.31998 16.2 1.53332 16.2 1.95998C16.2 2.03998 16.1467 2.26665 16.04 2.63998L6.4 29.96C6.26667 30.3333 6.08 30.6 5.84 30.76C5.62667 30.92 5.34667 31 5 31H1.68Z" fill="#0E0E0E"/>
<path d="M30.7153 23.72C30.7153 26.3867 30.0886 28.3333 28.8353 29.56C27.6086 30.7867 25.6886 31.4 23.0753 31.4C22.2486 31.4 21.4886 31.3333 20.7953 31.2C20.102 31.0933 19.302 30.92 18.3953 30.68C18.102 30.6267 17.8886 30.52 17.7553 30.36C17.6486 30.1733 17.6086 29.9067 17.6353 29.56L17.9953 26.44C18.0486 25.9866 18.2753 25.8 18.6753 25.88C18.8353 25.9333 19.1686 26.0533 19.6753 26.24C20.2086 26.4 20.822 26.48 21.5153 26.48C22.662 26.48 23.4886 26.1733 23.9953 25.56C24.5286 24.92 24.7953 23.8267 24.7953 22.28V1.99998C24.7953 1.54665 24.9953 1.31998 25.3953 1.31998H30.1553C30.5286 1.31998 30.7153 1.53332 30.7153 1.95998V23.72Z" fill="#0E0E0E"/>
<path d="M48.8963 0.919983C50.8429 0.919983 52.6429 1.30665 54.2962 2.07998C55.9763 2.82665 57.3496 3.85332 58.4163 5.15998C59.5096 6.46665 60.1896 7.91998 60.4562 9.51998C60.4829 9.65332 60.4963 9.81332 60.4963 9.99998C60.4963 10.16 60.4563 10.2666 60.3763 10.32C60.3229 10.3733 60.2163 10.4133 60.0563 10.44L55.4963 10.76C55.3096 10.76 55.1762 10.7333 55.0962 10.68C55.0429 10.6 54.9896 10.44 54.9362 10.2C54.6162 8.65332 53.9496 7.42665 52.9362 6.51998C51.9229 5.58665 50.6296 5.11998 49.0563 5.11998C44.2829 5.11998 41.8963 8.77332 41.8963 16.08C41.8963 19.7866 42.4963 22.5333 43.6963 24.32C44.8963 26.08 46.7229 26.96 49.1763 26.96C50.8829 26.96 52.3096 26.5467 53.4562 25.72C54.6296 24.8667 55.5763 23.5067 56.2963 21.64C56.3763 21.4267 56.6162 21.36 57.0163 21.44L60.4163 22.16C60.5496 22.2133 60.6563 22.3067 60.7363 22.44C60.8163 22.5467 60.8296 22.7467 60.7763 23.04C60.4563 24.24 59.8029 25.48 58.8162 26.76C57.8563 28.04 56.5363 29.1333 54.8563 30.04C53.1763 30.9467 51.2029 31.4 48.9363 31.4C46.2429 31.4 43.8963 30.7733 41.8963 29.52C39.8963 28.24 38.3629 26.44 37.2962 24.12C36.2296 21.7733 35.6963 19.0666 35.6963 16C35.6963 12.9066 36.2296 10.2266 37.2962 7.95998C38.3629 5.69332 39.8829 3.95998 41.8563 2.75998C43.8563 1.53332 46.2029 0.919983 48.8963 0.919983Z" fill="#0E0E0E"/>
<path d="M65.5663 1.99998C65.5663 1.54665 65.7663 1.31998 66.1663 1.31998H70.9262C71.2996 1.31998 71.4863 1.53332 71.4863 1.95998V26.12C71.4863 26.3067 71.5129 26.44 71.5663 26.52C71.6463 26.5733 71.7662 26.6 71.9262 26.6H85.0462C85.4729 26.6 85.6862 26.7867 85.6862 27.16V30.4C85.6862 30.56 85.6329 30.7067 85.5263 30.84C85.4196 30.9467 85.2462 31 85.0062 31H66.3262C66.0329 31 65.8329 30.9467 65.7262 30.84C65.6196 30.7067 65.5663 30.52 65.5663 30.28V1.99998Z" fill="#0E0E0E"/>
</svg>
